<svg xmlns="http://www.w3.org/2000/svg" viewBox="0 0 202.42 276.13"><defs><style>.cls-1{fill:none;stroke:#000;stroke-miterlimit:10;stroke-width:3px;}</style></defs><g id="Layer_2" data-name="Layer 2"><g id="Concept_2" data-name="Concept 2"><g id="LOGO"><path id="NUTT" class="cls-1" d="M129.26,234.53c11.16-13,14-26.4,16.13-36.28,5.83-26.88-1-39.13,4.72-59.29,10.17-35.85,41.42-36.35,49.18-68.05,5.26-21.5-2.4-48.75-20.21-61.31-30-21.11-84.61,2.2-97.7,33.69C70.61,69.21,83.17,75.17,69.93,97.86,57.2,119.69,41.8,122.92,20.75,145.7,1.86,166.13-6.47,205,11.32,231.94c11.33,17.14,30.92,25.87,51.25,27.56"/><path id="NUTT-2" data-name="NUTT" class="cls-1" d="M67.86,274.32c20.42,1.7,41.58-3.69,55.88-14.76a73.75,73.75,0,0,0,10.82-10.2"/></g></g></g></svg>